<?xml version="1.0" encoding="UTF-8"?><svg id="Layer_1" xmlns="http://www.w3.org/2000/svg" viewBox="0 0 18 20"><defs><style>.cls-1{fill:#fff;fill-rule:evenodd;}</style></defs><polygon class="cls-1" points="5.29 8.37 5.16 8.75 5.41 8.75 5.29 8.37"/><polygon class="cls-1" points="7.34 8.37 7.22 8.75 7.47 8.75 7.34 8.37"/><path class="cls-1" d="M6.51,8.44c0-.07-.04-.09-.13-.09h-.21v.19h.21c.09,0,.13-.03,.13-.1Z"/><path class="cls-1" d="M6.53,8.81c0-.09-.05-.12-.15-.12h-.22v.24h.22c.1,0,.15-.03,.15-.12Z"/><path class="cls-1" d="M9,2.92c-3.91,0-7.08,3.17-7.08,7.08s3.17,7.08,7.08,7.08,7.08-3.17,7.08-7.08-3.17-7.08-7.08-7.08Zm-1.14,5.09h.18v.38h-.18v-.38Zm-.63,.18h.22l.33,.9h-.2l-.06-.18h-.35l-.06,.18h-.2l.32-.9Zm-1.25,0h.43c.19,0,.28,.08,.28,.23,0,.09-.04,.15-.11,.19,.09,.04,.14,.11,.14,.21,0,.17-.12,.27-.33,.27h-.41v-.9Zm-.8,0h.22l.33,.9h-.2l-.06-.18h-.35l-.06,.18h-.2l.32-.9Zm1.87,2.91h0s-1.67,0-1.67,0v.64c0,.14-.12,.25-.26,.25s-.26-.11-.26-.26v-.9c0-.14,.09-.26,.25-.26h1.95c.12,0,.21-.09,.21-.21,0-.11-.08-.2-.19-.21,0,0-.01,0-.02,0h-.05s-.69,0-.69,0h-1.21s-.05,0-.07,0c-.06-.02-.12-.06-.15-.11-.03-.04-.04-.09-.04-.14,0-.14,.12-.26,.26-.26h1.92c.4,0,.72,.33,.72,.73s-.32,.72-.71,.73c0,0,0,0,0,0Zm3.17,.89c-.09,0-.18-.05-.22-.13l-.28-.44h-1.38l-.35,.47h0c-.05,.06-.12,.1-.2,.1-.14,0-.25-.11-.25-.25,0-.06,.02-.12,.07-.17l.39-.55c.07-.09,.18-.13,.24-.13h1.11s-.59-.83-.59-.83c-.03-.04-.05-.1-.05-.15,0-.14,.12-.26,.26-.26,.09,0,.17,.04,.21,.11l1.24,1.84s0,0,0,.01c.03,.04,.04,.09,.04,.14,0,.14-.11,.25-.25,.25Zm2.82-1.87l-.04,.03s-.01,.01-.02,.02l-.03,.03h-.01s-1.04,.84-1.04,.84v.7h0c0,.14-.12,.25-.26,.25s-.26-.11-.26-.25h0s0-.7,0-.7l-.17-.14-.98-.8s0,0,0,0h0s0,0,0,0c-.05-.05-.09-.12-.09-.2,0-.14,.11-.26,.25-.26,.06,0,.11,.02,.16,.06,.02,.02,.02,.02,.04,.03h.02s.86,.69,.86,.69l.2,.16,1.05-.84s.11-.07,.18-.07c.15,0,.26,.12,.26,.26,0,.09-.05,.16-.11,.21Z"/></svg>