<?xml version="1.0" encoding="UTF-8"?><svg id="Layer_1" xmlns="http://www.w3.org/2000/svg" viewBox="0 0 18 20"><defs><style>.cls-1{fill:#fff;}</style></defs><path class="cls-1" d="M10.67,10c0,.63-.31,1.22-.84,1.55h2.52v-3.11h-2.52c.53,.34,.85,.93,.84,1.55Zm.84-1.32h.48c.07,0,.12,.05,.12,.12v.48c0,.07-.05,.12-.12,.12s-.12-.05-.12-.12v-.36h-.36c-.07,0-.12-.05-.12-.12s.05-.12,.12-.12Zm0,2.39h.36v-.36c0-.07,.05-.12,.12-.12s.12,.05,.12,.12v.48c0,.07-.05,.12-.12,.12h-.48c-.07,0-.12-.05-.12-.12s.05-.12,.12-.12Z"/><path class="cls-1" d="M10.44,10c0-.86-.64-1.55-1.44-1.55s-1.44,.7-1.44,1.55,.64,1.55,1.44,1.55,1.44-.7,1.44-1.55Zm-1.04,.09h-.21v.62c0,.11-.08,.17-.25,.17-.1,0-.17-.02-.22-.06-.05-.04-.07-.11-.07-.19s.02-.15,.07-.19c.04-.03,.09-.04,.15-.05v-.28h-.26v-.19h.26v-.23s-.01-.08-.04-.11c-.03-.03-.07-.05-.13-.06v-.16c0-.08,.02-.15,.06-.19,.04-.04,.1-.06,.18-.06h.26v.26h-.18s-.06,.02-.06,.06v.03c.08,.02,.13,.05,.17,.09s.05,.09,.05,.16v.22h.21v.19Z"/><path class="cls-1" d="M8.92,10.72v-.22c-.07,0-.1,.04-.1,.11s.03,.11,.1,.11Z"/><path class="cls-1" d="M9,2.92c-3.91,0-7.08,3.17-7.08,7.08s3.17,7.08,7.08,7.08,7.08-3.17,7.08-7.08-3.17-7.08-7.08-7.08Zm-.04,4.85l2.58-.86c.06-.02,.13-.02,.18,.01,.06,.03,.1,.08,.12,.14l.26,.79s0,.09-.02,.12c-.03,.03-.07,.05-.11,.04s-.08-.04-.09-.08l-.26-.79-2.58,.86c-.06,.02-.13-.01-.15-.08s.01-.13,.08-.15Zm.08,4.47l-2.58,.86s-.05,.01-.08,.01c-.04,0-.07,0-.11-.03-.06-.03-.1-.08-.12-.14l-.26-.79c-.02-.06,.01-.13,.08-.15s.13,.01,.15,.08l.26,.79,2.58-.86h0c.06-.02,.13,.01,.15,.08,.02,.06-.01,.13-.08,.15Zm3.55-.68c0,.13-.11,.24-.24,.24H5.65c-.13,0-.24-.11-.24-.24v-3.11c0-.13,.11-.24,.24-.24h1.2c.07,0,.12,.05,.12,.12s-.05,.12-.12,.12h-1.2v3.11h2.52c-.53-.34-.85-.93-.84-1.55,0-.63,.31-1.22,.84-1.55h-.72c-.07,0-.12-.05-.12-.12s.05-.12,.12-.12h4.9c.13,0,.24,.11,.24,.24v3.11Zm-6.1-.48c.07,0,.12,.05,.12,.12s-.05,.12-.12,.12h-.48c-.07,0-.12-.05-.12-.12v-.48c0-.07,.05-.12,.12-.12s.12,.05,.12,.12v.36h.36Zm0-2.15h-.36v.36c0,.07-.05,.12-.12,.12s-.12-.05-.12-.12v-.48c0-.07,.05-.12,.12-.12h.48c.07,0,.12,.05,.12,.12s-.05,.12-.12,.12Z"/></svg>