<svg xmlns="http://www.w3.org/2000/svg" width="50" height="50" viewBox="0 0 50 50"><path d="M25,50A25.007,25.007,0,0,1,15.269,1.965,25.006,25.006,0,0,1,34.731,48.035,24.843,24.843,0,0,1,25,50ZM20.159,27.712v8.883h5.647a3.854,3.854,0,0,0,3.849-3.849V13.5H24.008a3.854,3.854,0,0,0-3.849,3.849v5.033a7.075,7.075,0,0,1,4.609-1.245c.252,0,.516.006.784.019a17.337,17.337,0,0,1,3.024.465V23.25a7.259,7.259,0,0,0-2.919-.846c-.132-.009-.263-.014-.39-.014-1.835,0-2.93.994-2.93,2.658s1.078,2.662,2.884,2.662c.141,0,.288-.006.436-.018a7.709,7.709,0,0,0,2.919-.846v1.629l-.005,0a17.032,17.032,0,0,1-3.019.463c-.268.012-.531.019-.784.019A7.077,7.077,0,0,1,20.159,27.712Zm10.617,1.036v7.825h5.647a3.854,3.854,0,0,0,3.849-3.849V13.5H34.646A3.854,3.854,0,0,0,30.8,17.349v4h5.435a2.164,2.164,0,0,1,.381.021,2.649,2.649,0,0,1,1.528.51,1.592,1.592,0,0,1,.608,1.288,1.807,1.807,0,0,1-1.755,1.755v.042c1.315.089,2.2.837,2.2,1.861,0,1.133-1.009,1.924-2.453,1.924ZM9.5,28.452v8.1h5.647A3.853,3.853,0,0,0,19,32.7V13.5H13.37a3.854,3.854,0,0,0-3.849,3.849v9.5a7.615,7.615,0,0,0,3.321.867,2.127,2.127,0,0,0,1.525-.539,1.853,1.853,0,0,0,.526-1.364V21.325h3.3v4.463a2.676,2.676,0,0,1-1,2.226,6.094,6.094,0,0,1-3.741.925A16.39,16.39,0,0,1,9.5,28.452Zm23.179-2.961v2.03H34.9c.032,0,.085-.005.137-.011s.106-.011.137-.011a.989.989,0,0,0,.782-.994,1.026,1.026,0,0,0-.782-.994,1.119,1.119,0,0,0-.275-.021Zm0-3v1.861h2.009a.594.594,0,0,0,.211-.021.92.92,0,0,0,0-1.819.814.814,0,0,1-.086-.009,1.072,1.072,0,0,0-.126-.012Z" transform="translate(0 0)" fill="#fff"/></svg>