<?xml version="1.0" encoding="UTF-8"?><svg id="Layer_1" xmlns="http://www.w3.org/2000/svg" viewBox="0 0 18 20"><defs><style>.cls-1{fill:#fff;}</style></defs><path class="cls-1" d="M9,2.92c-3.91,0-7.08,3.17-7.08,7.08s3.17,7.08,7.08,7.08,7.08-3.17,7.08-7.08-3.17-7.08-7.08-7.08Zm-3.09,8.11l-.98-.96v.96h-.39v-2.06h.39v.92l.94-.92h.46l-1.02,.99,1.07,1.07h-.47Zm2.6,0h-.38v-.89h-1.08v.89h-.38v-2.06h.38v.86h1.08v-.86h.38v2.06Zm2.5-.22l-.33-.32v-.97c0-.12-.1-.22-.22-.22h-1c-.12,0-.22,.1-.22,.22v.97c0,.12,.1,.22,.22,.22h1l.33,.32h-1.57c-.18,0-.32-.14-.32-.32v-1.42c0-.17,.15-.32,.32-.32h1.46c.18,0,.32,.14,.32,.32v1.52Zm-.67-1.07v.65h-.67c-.07,0-.12-.05-.12-.12v-.53c0-.07,.06-.12,.12-.12h.54c.07,0,.12,.05,.12,.11Zm1.38,.05c-.02,.07-.03,.14-.03,.21v1.03h0c-.18,0-.32-.14-.32-.32v-.71h0c0-.28,.12-.55,.33-.75,.2-.18,.45-.28,.72-.28,.58,0,1.05,.46,1.05,1.02h-.33c0-.39-.32-.7-.72-.7-.32,0-.59,.2-.69,.49Zm1.28,1.24l-.12-.11-.26-.25-.35-.34h.47l.73,.7h-.47Z"/></svg>