<?xml version="1.0" encoding="UTF-8"?><svg id="Layer_1" xmlns="http://www.w3.org/2000/svg" viewBox="0 0 18 20"><defs><style>.cls-1{fill:#fff;}</style></defs><path class="cls-1" d="M12.34,12.63s.02,.02,.04,.04v-.07s-.04,.02-.04,.04Z"/><path class="cls-1" d="M12.4,12.63h0v.03h0s.01,.03,.03,.03,.01-.02,.03-.03h-.01l-.03-.03Z"/><path class="cls-1" d="M11.89,12.25c-.1,0-.17,.08-.17,.18s.06,.18,.17,.18,.17-.08,.17-.18-.07-.18-.17-.18Z"/><ellipse class="cls-1" cx="7.19" cy="12.43" rx=".17" ry=".18"/><path class="cls-1" d="M12.41,12.6h-.02v.02h.02s.02,0,.02-.01,0-.01-.02-.01Z"/><ellipse class="cls-1" cx="10.7" cy="12.43" rx=".17" ry=".18"/><path class="cls-1" d="M8.99,12.25c-.09,0-.13,.05-.15,.14h.28c-.01-.09-.06-.14-.14-.14Z"/><path class="cls-1" d="M9,2.92c-3.91,0-7.08,3.17-7.08,7.08s3.17,7.08,7.08,7.08,7.08-3.17,7.08-7.08-3.17-7.08-7.08-7.08Zm-2.25,9.78h-.12v-.31c0-.09-.05-.14-.13-.14s-.14,.05-.14,.15v.3h-.12v-.31c0-.09-.05-.14-.13-.14s-.14,.05-.14,.15v.3h-.12v-.55h.12v.07c.04-.07,.11-.08,.17-.08,.08,0,.15,.04,.19,.1,.05-.08,.13-.1,.2-.1,.13,0,.22,.09,.22,.22v.35Zm.71,0h-.12v-.07s-.09,.08-.17,.08c-.15,0-.27-.12-.27-.29s.12-.29,.27-.29c.08,0,.13,.03,.17,.08v-.07h.12v.55Zm.38,.01c-.06,0-.16-.01-.24-.07l.06-.09s.09,.06,.18,.06c.08,0,.12-.03,.12-.07,0-.03-.03-.05-.09-.06h-.06c-.12-.02-.19-.08-.19-.17,0-.11,.09-.18,.23-.18,.09,0,.17,.02,.22,.06l-.05,.09s-.1-.05-.17-.05-.1,.03-.1,.07,.04,.05,.09,.06h.06c.12,.03,.19,.08,.19,.17,0,.11-.09,.18-.25,.18Zm.63,0c-.12,0-.2-.07-.2-.21v-.24h-.11v-.11h.11v-.17h.12v.17h.21v.11h-.21v.24c0,.07,.04,.1,.09,.1,.04,0,.08-.02,.11-.04l.05,.1s-.1,.05-.17,.05Zm.77-.24h-.41c.02,.1,.09,.14,.16,.14,.05,0,.11-.02,.16-.06l.06,.09c-.07,.06-.14,.08-.23,.08-.16,0-.28-.11-.28-.29s.11-.29,.27-.29c.15,0,.26,.12,.26,.29,0,.02,0,.03,0,.05Zm.49-.2s-.06-.02-.09-.02c-.08,0-.13,.05-.13,.15v.3h-.12v-.55h.12v.06c.04-.05,.09-.08,.16-.08,.04,0,.06,0,.09,.02l-.03,.12Zm.38,.33c.05,0,.1-.02,.14-.06l.07,.08c-.05,.06-.12,.09-.21,.09-.17,0-.29-.12-.29-.29s.11-.29,.29-.29c.08,0,.16,.03,.21,.09l-.08,.08s-.08-.06-.13-.06c-.09,0-.16,.07-.16,.18s.07,.18,.16,.18Zm.86,.1h-.12v-.07s-.09,.08-.17,.08c-.15,0-.27-.12-.27-.29s.12-.29,.27-.29c.08,0,.13,.03,.17,.08v-.07h.12v.55Zm.53-.43s-.06-.02-.09-.02c-.08,0-.13,.05-.13,.15v.3h-.12v-.55h.12v.06c.04-.05,.09-.08,.16-.08,.04,0,.06,0,.09,.02l-.03,.12Zm.66,.43h-.12v-.07s-.09,.08-.17,.08c-.15,0-.27-.12-.27-.29s.12-.29,.27-.29c.08,0,.14,.03,.17,.08v-.34h.12v.83Zm.12-1.97v-.02h.08v.02h-.03v.09h-.02v-.09h-.03Zm.12,1.97s-.08-.03-.08-.08,.03-.08,.08-.08,.08,.03,.08,.08-.03,.08-.08,.08Zm.09-1.88h-.02v-.08l-.03,.07h-.02l-.03-.07v.08h-.02v-.1h.02l.03,.07,.03-.07h.03v.1Zm-2.15,.83c-.51,0-.97-.18-1.34-.48-.37,.29-.83,.48-1.34,.48-1.21,0-2.18-.98-2.18-2.18s.98-2.18,2.18-2.18c.51,0,.97,.18,1.34,.48,.37-.29,.83-.48,1.34-.48,1.21,0,2.18,.98,2.18,2.18s-.98,2.18-2.18,2.18Z"/><path class="cls-1" d="M12.41,12.56s-.01,.02-.03,.03h.03s.03,0,.03,.02c0,.01-.01,.02-.03,.02l.02,.03s.04-.02,.04-.04c0-.04-.03-.07-.07-.07Z"/><path class="cls-1" d="M9.84,9.46c0-.7-.33-1.31-.84-1.71-.51,.4-.84,1.01-.84,1.71s.33,1.31,.84,1.71c.51-.4,.84-1.01,.84-1.71Z"/><polygon class="cls-1" points="12.38 12.59 12.38 12.59 12.38 12.59 12.38 12.59"/><polygon class="cls-1" points="12.38 12.67 12.38 12.67 12.38 12.66 12.38 12.67"/><polygon class="cls-1" points="12.44 12.67 12.44 12.67 12.44 12.67 12.44 12.67"/></svg>