<?xml version="1.0" encoding="UTF-8"?><svg id="Layer_1" xmlns="http://www.w3.org/2000/svg" viewBox="0 0 18 20"><defs><style>.cls-1{fill:#fff;}</style></defs><path class="cls-1" d="M9,2.92c-3.91,0-7.08,3.17-7.08,7.08s3.17,7.08,7.08,7.08,7.08-3.17,7.08-7.08-3.17-7.08-7.08-7.08Zm-3.21,8.57l-.61-2.38c-.04-.15-.07-.2-.18-.26-.19-.1-.49-.19-.76-.25l.02-.09h1.31c.17,0,.32,.11,.36,.3l.32,1.72,.8-2.03h.81l-1.25,2.98h-.82Zm1.76,0l.64-2.98h.77l-.64,2.98h-.77Zm2.16,.05c-.34,0-.68-.08-.86-.16l.14-.65c.18,.08,.4,.19,.79,.19,.22,0,.46-.09,.46-.29,0-.13-.1-.22-.4-.37-.29-.14-.68-.38-.68-.81,0-.58,.54-.99,1.3-.99,.3,0,.54,.06,.72,.13l-.14,.63c-.35-.16-.65-.15-.76-.13-.22,.03-.32,.14-.33,.25,0,.35,1.08,.39,1.08,1.18,0,.62-.53,1.02-1.34,1.02Zm3.35-.05l-.09-.45h-.99l-.16,.45h-.81l1.16-2.76c.06-.13,.18-.22,.33-.22h.66l.62,2.98h-.71Z"/><polygon class="cls-1" points="12.2 10.44 12.84 10.44 12.6 9.32 12.2 10.44"/></svg>